<svg xmlns="http://www.w3.org/2000/svg" xmlns:xlink="http://www.w3.org/1999/xlink" version="1.1" width="1424" height="752"><g id="Context Diagram 2"><g id="Uses for creating personal goals and participating in groups"><polyline points="360,380 438.53,380.4200000000001 521.47,383.5799999999999 600,384" fill="none" stroke-width="1" stroke="#adb3b3" opacity="1"></polyline></g><g id="Uses for creating personal goals and participating in groups"><rect width="132.69400000000002" height="70.19999999999999" x="413.653" y="346.9" rx="4" ry="4" fill-opacity="0.8" fill="#e5e7e8" stroke-opacity="1" stroke-width="1" stroke="#cfd2d2" opacity="0.8"></rect><g opacity="1" fill="#434647"><text font-family="IBM Plex Sans Medium, Arial, sans-serif" font-size="14" text-anchor="middle" x="480" y="363.25"><tspan dy="0" x="480">Uses for creating</tspan></text><text font-family="IBM Plex Sans Medium, Arial, sans-serif" font-size="14" text-anchor="middle" x="480" y="379.25"><tspan dy="0" x="480">personal goals and</tspan></text><text font-family="IBM Plex Sans Medium, Arial, sans-serif" font-size="14" text-anchor="middle" x="480" y="395.25"><tspan dy="0" x="480">participating in</tspan></text><text font-family="IBM Plex Sans Medium, Arial, sans-serif" font-size="14" text-anchor="middle" x="480" y="411.25"><tspan dy="0" x="480">groups</tspan></text></g></g><g id="Requests simulated transaction processing for contributions"><polyline points="856,384 880,384 889.55,384.53 898.53,386.06999999999994 906.98,388.5799999999999 914.92,392 922.38,396.27 929.39,401.3299999999999 935.99,407.1400000000001 942.21,413.6400000000001 953.61,428.48 958.85,436.71000000000004 968.59,454.52 981.78,483.78 1006.08,546.01 1018.85,576.01 1033.15,603.29 1043.9299999999998,619.23 1056.01,632.8599999999999 1062.6100000000001,638.6700000000001 1069.62,643.73 1077.08,648 1085.02,651.4200000000001 1093.47,653.9300000000001 1102.45,655.47 1136,656" fill="none" stroke-width="1" stroke="#adb3b3" opacity="1"></polyline></g><g id="Requests simulated transaction processing for contributions"><rect width="139.302" height="70.19999999999999" x="926.2776531821804" y="484.913361626629" rx="4" ry="4" fill-opacity="0.8" fill="#e5e7e8" stroke-opacity="1" stroke-width="1" stroke="#cfd2d2" opacity="0.8"></rect><g opacity="1" fill="#434647"><text font-family="IBM Plex Sans Medium, Arial, sans-serif" font-size="14" text-anchor="middle" x="995.9286531821804" y="501.26336162662903"><tspan dy="0" x="995.9286531821804">Requests simulated</tspan></text><text font-family="IBM Plex Sans Medium, Arial, sans-serif" font-size="14" text-anchor="middle" x="995.9286531821804" y="517.263361626629"><tspan dy="0" x="995.9286531821804">transaction</tspan></text><text font-family="IBM Plex Sans Medium, Arial, sans-serif" font-size="14" text-anchor="middle" x="995.9286531821804" y="533.263361626629"><tspan dy="0" x="995.9286531821804">processing for</tspan></text><text font-family="IBM Plex Sans Medium, Arial, sans-serif" font-size="14" text-anchor="middle" x="995.9286531821804" y="549.2633616266289"><tspan dy="0" x="995.9286531821804">contributions</tspan></text></g></g><g id="Sends invitations and notifications"><polyline points="856,384 894.11,383.5799999999999 906.98,382.3800000000001 918.7,380.46000000000004 929.39,377.8800000000001 939.14,374.71000000000004 956.26,366.8699999999999 970.89,357.45000000000005 983.86,346.99 1014.47,319.68000000000006 1028.1599999999999,309.6700000000001 1043.9299999999998,300.98 1062.6100000000001,294.1199999999999 1073.3,291.53999999999996 1085.02,289.6199999999999 1097.8899999999999,288.4200000000001 1136,288" fill="none" stroke-width="1" stroke="#adb3b3" opacity="1"></polyline></g><g id="Sends invitations and notifications"><rect width="122.012" height="38.2" x="935.0698036149092" y="316.9911565918599" rx="4" ry="4" fill-opacity="0.8" fill="#e5e7e8" stroke-opacity="1" stroke-width="1" stroke="#cfd2d2" opacity="0.8"></rect><g opacity="1" fill="#434647"><text font-family="IBM Plex Sans Medium, Arial, sans-serif" font-size="14" text-anchor="middle" x="996.0758036149092" y="333.34115659185994"><tspan dy="0" x="996.0758036149092">Sends invitations</tspan></text><text font-family="IBM Plex Sans Medium, Arial, sans-serif" font-size="14" text-anchor="middle" x="996.0758036149092" y="349.34115659185994"><tspan dy="0" x="996.0758036149092">and notifications</tspan></text></g></g><g id="Sends push notifications about goal events"><polyline points="856,384 880,384 889.32,383.47 898.1,381.9100000000001 906.36,379.3800000000001 914.14,375.94000000000005 921.47,371.6300000000001 928.37,366.5 934.86,360.6300000000001 940.99,354.04999999999995 952.25,339 957.44,330.6400000000001 967.07,312.51 980.1,282.6199999999999 1007.83,207.83999999999992 1020.43,177.1400000000001 1034.56,149.3599999999999 1045.22,133.18000000000006 1057.1399999999999,119.36999999999989 1063.63,113.5 1070.53,108.38000000000011 1077.8600000000001,104.05999999999995 1085.6399999999999,100.61999999999989 1093.9,98.08999999999992 1102.6799999999998,96.52999999999997 1136,96" fill="none" stroke-width="1" stroke="#adb3b3" opacity="1"></polyline></g><g id="Sends push notifications about goal events"><rect width="132.134" height="54.2" x="929.8441337289736" y="212.88182545068" rx="4" ry="4" fill-opacity="0.8" fill="#e5e7e8" stroke-opacity="1" stroke-width="1" stroke="#cfd2d2" opacity="0.8"></rect><g opacity="1" fill="#434647"><text font-family="IBM Plex Sans Medium, Arial, sans-serif" font-size="14" text-anchor="middle" x="995.9111337289736" y="229.23182545067996"><tspan dy="0" x="995.9111337289736">Sends push</tspan></text><text font-family="IBM Plex Sans Medium, Arial, sans-serif" font-size="14" text-anchor="middle" x="995.9111337289736" y="245.23182545067996"><tspan dy="0" x="995.9111337289736">notifications about</tspan></text><text font-family="IBM Plex Sans Medium, Arial, sans-serif" font-size="14" text-anchor="middle" x="995.9111337289736" y="261.23182545067993"><tspan dy="0" x="995.9111337289736">goal events</tspan></text></g></g><g id="Проверяет токены
[JWKS]"><polyline points="856,384 894.11,384.3800000000001 906.98,385.48 929.39,389.6099999999999 948.07,395.9000000000001 956.26,399.70000000000005 970.89,408.3299999999999 983.86,417.93000000000006 1008.14,438.06999999999994 1021.11,447.6700000000001 1035.74,456.29999999999995 1052.8600000000001,463.49 1073.3,468.76 1085.02,470.52 1097.8899999999999,471.6199999999999 1136,472" fill="none" stroke-width="1" stroke="#adb3b3" opacity="1"></polyline></g><g id="Проверяет токены
[JWKS]"><rect width="136.866" height="38.2" x="927.5676977176602" y="408.9005787493276" rx="4" ry="4" fill-opacity="0.8" fill="#e5e7e8" stroke-opacity="1" stroke-width="1" stroke="#cfd2d2" opacity="0.8"></rect><g opacity="1" fill="#434647"><text font-family="IBM Plex Sans Medium, Arial, sans-serif" font-size="14" text-anchor="middle" x="996.0006977176602" y="425.25057874932764"><tspan dy="0" x="996.0006977176602">Проверяет токены</tspan></text><text font-family="IBM Plex Sans Medium, Arial, sans-serif" font-size="14" text-anchor="middle" x="996.0006977176602" y="441.25057874932764"><tspan dy="0" x="996.0006977176602">[JWKS]</tspan></text></g></g><a href="https://app.icepanel.io/landscapes/sxqqTtuNjNm1XouEmWTo/versions/latest/model/objects?object=JYfBWOBaK2&amp;focus=JYfBWOBaK2" id="User" target="_blank"><rect width="56" height="56" rx="8" ry="8" fill-opacity="0.8" fill="#ffffff" stroke-opacity="1" stroke-width="1" stroke="#cfd2d2" opacity="1" x="168" y="248"></rect><rect width="328" height="128" rx="8" ry="8" fill-opacity="0.8" fill="#ffffff" stroke-opacity="1" stroke-width="1" stroke="#cfd2d2" opacity="1" x="32" y="312"></rect><path d="M196 277.7142857142857C199.7875 277.7142857142857 202.85714285714286 274.64464285714286 202.85714285714286 270.8571428571429C202.85714285714286 267.06964285714287 199.7875 264 196 264C192.2125 264 189.14285714285714 267.06964285714287 189.14285714285714 270.8571428571429C189.14285714285714 274.64464285714286 192.2125 277.7142857142857 196 277.7142857142857ZM200.8 279.42857142857144L199.90535714285716 279.42857142857144C198.71607142857144 279.975 197.39285714285714 280.2857142857143 196 280.2857142857143C194.60714285714286 280.2857142857143 193.2892857142857 279.975 192.09464285714284 279.42857142857144L191.2 279.42857142857144C187.225 279.42857142857144 184 282.6535714285714 184 286.62857142857143L184 288.85714285714283C184 290.2767857142857 185.15178571428572 291.42857142857144 186.57142857142858 291.42857142857144L205.42857142857142 291.42857142857144C206.84821428571428 291.42857142857144 208 290.2767857142857 208 288.85714285714283L208 286.62857142857143C208 282.6535714285714 204.775 279.42857142857144 200.8 279.42857142857144Z " fill="#0c0d0d" opacity="1"></path><text font-family="IBM Plex Sans Medium, Arial, sans-serif" font-size="24" font-weight="500" text-anchor="middle" fill="#0c0d0d" opacity="1" x="195.99999999999997" y="361"><tspan dy="0" x="195.99999999999997">User</tspan></text><g opacity="1"><text font-family="IBM Plex Sans, Arial, sans-serif" font-size="11" text-anchor="middle" fill="#595f61" x="196" y="396.625"><tspan dy="0" x="196">Лицо, создающее личные цели накопления или</tspan></text><text font-family="IBM Plex Sans, Arial, sans-serif" font-size="11" text-anchor="middle" fill="#595f61" x="195.99999999999997" y="409.625"><tspan dy="0" x="195.99999999999997">участвующее в групповых накоплениях.</tspan></text></g><g id="External actor" opacity="1"><text font-family="Courier New, monospace" font-size="12" text-anchor="middle" fill="#595f61" x="196" y="428.6552734375"><tspan dy="0" x="196">External actor</tspan></text></g></a><a href="https://app.icepanel.io/landscapes/sxqqTtuNjNm1XouEmWTo/versions/latest/model/objects?object=gDWRqLKaCW&amp;focus=gDWRqLKaCW" id="Smart Saving System" target="_blank"><rect width="256" height="128" rx="8" ry="8" fill-opacity="0.8" fill="#f5f6f6" stroke-opacity="1" stroke-width="1" stroke="#adb3b3" opacity="1" x="600" y="320"></rect><text font-family="IBM Plex Sans Medium, Arial, sans-serif" font-size="24" font-weight="500" text-anchor="middle" fill="#0c0d0d" opacity="1" x="728" y="371"><tspan dy="0" x="728">Smart Saving System</tspan></text><g opacity="1"><text font-family="IBM Plex Sans, Arial, sans-serif" font-size="10" text-anchor="middle" fill="#595f61" x="728" y="391.75"><tspan dy="0" x="728">Социальный финансовый помощник для</tspan></text><text font-family="IBM Plex Sans, Arial, sans-serif" font-size="10" text-anchor="middle" fill="#595f61" x="728.0000000000001" y="403.75"><tspan dy="0" x="728.0000000000001">индивидуального и группового накопления на</tspan></text><text font-family="IBM Plex Sans, Arial, sans-serif" font-size="10" text-anchor="middle" fill="#595f61" x="727.9999999999999" y="415.75"><tspan dy="0" x="727.9999999999999">крупные цели</tspan></text></g><g id="System" opacity="1"><text font-family="Courier New, monospace" font-size="12" text-anchor="middle" fill="#595f61" x="728" y="436.6552734375"><tspan dy="0" x="728">System</tspan></text></g></a><a href="https://app.icepanel.io/landscapes/sxqqTtuNjNm1XouEmWTo/versions/latest/model/objects?object=eO3Dg0WaTx&amp;focus=eO3Dg0WaTx" id="Payment System" target="_blank"><rect width="256" height="128" rx="8" ry="8" fill-opacity="0.8" fill="#ffffff" stroke-opacity="1" stroke-width="1" stroke="#cfd2d2" opacity="1" x="1136" y="592"></rect><text font-family="IBM Plex Sans Medium, Arial, sans-serif" font-size="24" font-weight="500" text-anchor="middle" fill="#0c0d0d" opacity="1" x="1263.9999999999998" y="643.0000000000001"><tspan dy="0" x="1263.9999999999998">Payment System</tspan></text><g opacity="1"><text font-family="IBM Plex Sans, Arial, sans-serif" font-size="10" text-anchor="middle" fill="#595f61" x="1263.9999999999998" y="669.75"><tspan dy="0" x="1263.9999999999998">Внешний мок-сервис, имитирующий обработку</tspan></text><text font-family="IBM Plex Sans, Arial, sans-serif" font-size="10" text-anchor="middle" fill="#595f61" x="1264" y="681.75"><tspan dy="0" x="1264">транзакций для тестирования логики пополнений</tspan></text></g><g id="External system" opacity="1"><text font-family="Courier New, monospace" font-size="12" text-anchor="middle" fill="#595f61" x="1264" y="708.6552734375"><tspan dy="0" x="1264">External system</tspan></text></g></a><a href="https://app.icepanel.io/landscapes/sxqqTtuNjNm1XouEmWTo/versions/latest/model/objects?object=9HDCzAOnN7&amp;focus=9HDCzAOnN7" id="E-mail System" target="_blank"><rect width="256" height="128" rx="8" ry="8" fill-opacity="0.8" fill="#ffffff" stroke-opacity="1" stroke-width="1" stroke="#cfd2d2" opacity="1" x="1136" y="224"></rect><text font-family="IBM Plex Sans Medium, Arial, sans-serif" font-size="24" font-weight="500" text-anchor="middle" fill="#0c0d0d" opacity="1" x="1264" y="275"><tspan dy="0" x="1264">E-mail System</tspan></text><g opacity="1"><text font-family="IBM Plex Sans, Arial, sans-serif" font-size="10" text-anchor="middle" fill="#595f61" x="1264" y="295.75"><tspan dy="0" x="1264">Внешний SMTP-провайдер для доставки</tspan></text><text font-family="IBM Plex Sans, Arial, sans-serif" font-size="10" text-anchor="middle" fill="#595f61" x="1264" y="307.75"><tspan dy="0" x="1264">приглашений и уведомлений по электронной</tspan></text><text font-family="IBM Plex Sans, Arial, sans-serif" font-size="10" text-anchor="middle" fill="#595f61" x="1264.0000000000002" y="319.75"><tspan dy="0" x="1264.0000000000002">почте.</tspan></text></g><g id="External system" opacity="1"><text font-family="Courier New, monospace" font-size="12" text-anchor="middle" fill="#595f61" x="1264" y="340.6552734375"><tspan dy="0" x="1264">External system</tspan></text></g></a><a href="https://app.icepanel.io/landscapes/sxqqTtuNjNm1XouEmWTo/versions/latest/model/objects?object=M4m9mZbm1L&amp;focus=M4m9mZbm1L" id="Push Notification System" target="_blank"><rect width="256" height="128" rx="8" ry="8" fill-opacity="0.8" fill="#ffffff" stroke-opacity="1" stroke-width="1" stroke="#cfd2d2" opacity="1" x="1136" y="32"></rect><text font-family="IBM Plex Sans Medium, Arial, sans-serif" font-size="21" font-weight="500" text-anchor="middle" fill="#0c0d0d" opacity="1" x="1264.0000000000002" y="81.875"><tspan dy="0" x="1264.0000000000002">Push Notification System</tspan></text><g opacity="1"><text font-family="IBM Plex Sans, Arial, sans-serif" font-size="11" text-anchor="middle" fill="#595f61" x="1263.9999999999998" y="109.625"><tspan dy="0" x="1263.9999999999998">Провайдер push-уведомлений (APNS/FCM)</tspan></text><text font-family="IBM Plex Sans, Arial, sans-serif" font-size="11" text-anchor="middle" fill="#595f61" x="1264" y="122.625"><tspan dy="0" x="1264">для отправки alerts на мобильные устройства</tspan></text></g><g id="External system" opacity="1"><text font-family="Courier New, monospace" font-size="12" text-anchor="middle" fill="#595f61" x="1264" y="148.6552734375"><tspan dy="0" x="1264">External system</tspan></text></g></a><a href="https://app.icepanel.io/landscapes/sxqqTtuNjNm1XouEmWTo/versions/latest/model/objects?object=icN5FfgIIi&amp;focus=icN5FfgIIi" id="Identity Provider" target="_blank"><rect width="256" height="128" rx="8" ry="8" fill-opacity="0.8" fill="#ffffff" stroke-opacity="1" stroke-width="1" stroke="#cfd2d2" opacity="1" x="1136" y="408"></rect><text font-family="IBM Plex Sans Medium, Arial, sans-serif" font-size="24" font-weight="500" text-anchor="middle" fill="#0c0d0d" opacity="1" x="1263.9999999999998" y="459"><tspan dy="0" x="1263.9999999999998">Identity Provider</tspan></text><g opacity="1"><text font-family="IBM Plex Sans, Arial, sans-serif" font-size="13" text-anchor="middle" fill="#595f61" x="1264" y="492.875"><tspan dy="0" x="1264">OAuth/OIDC сервис аутентификации</tspan></text></g><g id="External system" opacity="1"><text font-family="Courier New, monospace" font-size="12" text-anchor="middle" fill="#595f61" x="1264" y="524.6552734375"><tspan dy="0" x="1264">External system</tspan></text></g></a><g id="Uses for creating personal goals and participating in groups"><polygon points="591.8285144211077,311.7865297326208 583.8285144211077,327.7865297326208 599.8285144211077,327.7865297326208 591.8285144211077,311.7865297326208" fill="#adb3b3" opacity="1" transform="matrix(-0.00534819805527073,0.9999856982865113,-0.9999856982865113,-0.00534819805527073,914.9472867608836,-206.15255414728438)"></polygon><circle r="4" fill="#adb3b3" opacity="1" cx="360" cy="380"></circle></g><g id="Requests simulated transaction processing for contributions"><polygon points="1127.491554804602,583.3721782704783 1119.491554804602,599.3721782704783 1135.491554804602,599.3721782704783 1127.491554804602,583.3721782704783" fill="#adb3b3" opacity="1" transform="matrix(-0.015795346653859656,0.9998752457302282,-0.9998752457302282,-0.015795346653859656,1737.108520057811,-462.136329635009)"></polygon><circle r="4" fill="#adb3b3" opacity="1" cx="856" cy="384"></circle></g><g id="Sends invitations and notifications"><polygon points="1128.3511845832973,216.44274553699745 1120.3511845832973,232.44274553699745 1136.3511845832973,232.44274553699745 1128.3511845832973,216.44274553699745" fill="#adb3b3" opacity="1" transform="matrix(0.011020060258799766,0.9999392772923226,-0.9999392772923226,0.011020060258799766,1339.9951045002354,-842.6678801425562)"></polygon><circle r="4" fill="#adb3b3" opacity="1" cx="856" cy="384"></circle></g><g id="Sends push notifications about goal events"><polygon points="1128.5059036491366,24.640221456831263 1120.5059036491366,40.64022145683126 1136.5059036491366,40.64022145683126 1128.5059036491366,24.640221456831263" fill="#adb3b3" opacity="1" transform="matrix(0.01590435067354181,0.999873517815955,-0.999873517815955,0.01590435067354181,1142.6889512790078,-1032.7550544804583)"></polygon><circle r="4" fill="#adb3b3" opacity="1" cx="856" cy="384"></circle></g><g id="Проверяет токены
[JWKS]"><polygon points="1127.6797465090353,399.60276503674726 1119.6797465090353,415.60276503674726 1135.6797465090353,415.60276503674726 1127.6797465090353,399.60276503674726" fill="#adb3b3" opacity="1" transform="matrix(-0.00997064053877732,0.9999502919281771,-0.9999502919281771,-0.00997064053877732,1546.8265909491033,-651.6393961947199)"></polygon><circle r="4" fill="#adb3b3" opacity="1" cx="856" cy="384"></circle></g></g></svg>